# xmcd CD database file
#
# Track frame offsets:
#	187
#	31730
#	69372
#	98710
#	120720
#	139200
#	160737
#	180615
#	204400
#	219762
#	247937
#	263867
#
# Disc length: 3701 seconds
#
# Revision: 0
# Processed by: cddbd v1.5.1PL0 Copyright (c) Steve Scherf et al.
# Submitted via: CDex 1.51
#
DISCID=9b0e730c
DTITLE=さまざまなアーティスト - Tokyo FM Select jazz from the city
DYEAR=1900
DGENRE=Jazz
TTITLE0=Walt for Debby_BILL EVANS
TTITLE1=C jam blues_RED GARLAND
TTITLE2=Softly, as in a morning sunshine_WYNTON KELLY
TTITLE3=Golden earrings_RAY BRYANT
TTITLE4=I'm getting sentimental over you_THELONIOUS MONK
TTITLE5=What is this thingcalled love_HAMPTON HAWES
TTITLE6=Reflection_PHINEAS NEWBORN
TTITLE7=When you wish upon a star_KENNY DREW
TTITLE8=So in love_DON FRIEDMAN
TTITLE9=Moose the mooche_BARRY HARRIS
TTITLE10=This here_BOBBY TIMMONS
TTITLE11=I could have dance all night_ANDRE PREVIN
EXTD=
EXTT0=
EXTT1=
EXTT2=
EXTT3=
EXTT4=
EXTT5=
EXTT6=
EXTT7=
EXTT8=
EXTT9=
EXTT10=
EXTT11=
PLAYORDER=
